<svg width="132" height="16" viewBox="0 0 132 16" fill="none" xmlns="http://www.w3.org/2000/svg">
<path fill-rule="evenodd" clip-rule="evenodd" d="M23.6308 0C26.724 0 30.0534 1.88291 30.0534 6.01733C30.0534 8.0791 29.0137 10.115 27.4668 11.0834L27.082 11.3243L30.3873 16H25.8102L23.0514 12.0591H19.6502V14.5136C19.6502 15.3345 18.9847 16 18.1637 16H15.4269V1.1108C15.4269 0.497262 15.9243 0 16.5378 0H23.6308ZM14.4774 0V2.60171C14.4774 3.29998 13.9113 3.8662 13.2128 3.8662H9.35015V14.5136C9.35015 15.3345 8.68464 16 7.86366 16H5.12712V3.8662H0V0.811915C0 0.363466 0.363487 0 0.811963 0H14.4774ZM45.0667 0V2.60171C45.0667 3.29998 44.5005 3.8662 43.8021 3.8662H39.9394V14.5136C39.9394 15.3345 39.2739 16 38.453 16H35.7164V3.8662H30.5893V0.811915C30.5893 0.363466 30.9528 0 31.4012 0H45.0667ZM23.6783 3.81777H19.6263V8.16959H23.6783C25.2635 8.16959 25.8541 6.83488 25.8541 5.99368C25.8541 4.91229 25.1068 3.81777 23.6783 3.81777Z" fill="white"/>
<path d="M48.4 0.265193L52.9939 15.7348H55.357C55.7767 15.7348 56.0859 15.5359 56.2184 15.0939L59.4429 5.48066L62.6674 15.0939C62.7999 15.5359 63.1091 15.7348 63.5288 15.7348H65.8919L70.4858 0.265193H68.1226C67.6809 0.265193 67.3938 0.486187 67.2612 0.928177L64.2355 11.5359L60.6355 0.331491H58.2724L54.6503 11.5359L51.6245 0.928177C51.492 0.486187 51.2049 0.265193 50.7632 0.265193H48.4Z" fill="#33D8FF"/>
<path d="M78.9789 16C83.5065 16 86.8635 12.7072 86.8635 8C86.8635 3.29282 83.5065 0 78.9789 0C74.4514 0 71.0943 3.29282 71.0943 8C71.0943 12.7072 74.4514 16 78.9789 16ZM78.9789 13.4144C76.1078 13.4144 73.9655 11.1381 73.9655 8C73.9655 4.86188 76.1078 2.58563 78.9789 2.58563C81.8501 2.58563 83.9924 4.86188 83.9924 8C83.9924 11.1381 81.8501 13.4144 78.9789 13.4144Z" fill="#33D8FF"/>
<path d="M89.1926 15.7348H91.1361C91.622 15.7348 92.0416 15.3149 92.0416 14.8066V10.9171H95.6195L99.087 15.7348H102.311L98.5569 10.5414C100.788 9.90055 102.201 8.0884 102.201 5.61326C102.201 2.27624 99.7937 0.265193 96.2821 0.265193H89.9214C89.4576 0.265193 89.1926 0.530386 89.1926 0.994474V15.7348ZM92.0416 2.82873H96.2821C98.0489 2.82873 99.3078 3.8895 99.3078 5.61326C99.3078 7.33702 98.0489 8.37569 96.2821 8.37569H92.0416V2.82873Z" fill="#33D8FF"/>
<path d="M114.412 15.7348C114.897 15.7348 115.185 15.4475 115.185 14.9613V13.1271H107.256V0.265193H105.18C104.694 0.265193 104.407 0.552486 104.407 1.03867V15.7348H114.412Z" fill="#33D8FF"/>
<path d="M122.581 15.7348C127.175 15.7348 130.267 12.5083 130.267 8C130.267 3.46961 127.175 0.265193 122.581 0.265193H117.567C117.104 0.265193 116.839 0.530386 116.839 0.994474V15.7348H122.581ZM119.688 2.82873H122.581C125.54 2.82873 127.373 4.90608 127.373 8C127.373 11.0939 125.54 13.1713 122.581 13.1713H119.688V2.82873Z" fill="#33D8FF"/>
</svg>
