<svg width="17" height="17" viewBox="0 0 17 17" fill="none" xmlns="http://www.w3.org/2000/svg">
<path d="M7.55811 14.1201C8.82812 14.1201 10.0234 13.7549 11.0361 13.124L14.4561 16.5439C14.73 16.8179 15.1035 16.9507 15.4854 16.9507C16.2905 16.9507 16.8965 16.3198 16.8965 15.5229C16.8965 15.1494 16.772 14.7925 16.4897 14.5103L13.103 11.1152C13.8003 10.0693 14.1987 8.81592 14.1987 7.47119C14.1987 3.81885 11.2104 0.822266 7.55811 0.822266C3.90576 0.822266 0.90918 3.81885 0.90918 7.47119C0.90918 11.1235 3.90576 14.1201 7.55811 14.1201ZM7.55811 12.0947C5.00977 12.0947 2.92627 10.0112 2.92627 7.47119C2.92627 4.93115 5.00977 2.84766 7.55811 2.84766C10.0981 2.84766 12.1816 4.93115 12.1816 7.47119C12.1816 10.0112 10.0981 12.0947 7.55811 12.0947Z" fill="#FDFDFD"/>
</svg>
